PathFileType	4	(X/Y/Z)	Walk10.trc
DataRate	CameraRate	NumFrames	NumMarkers	Units	OrigDataRate	OrigDataStartFrame	OrigNumFrames
200.000000	200.000000	6	68	mm	200.000000	654	783
Frame#	Times		LToe		LowerBodyModelVer		LBHD		LWRR		LElbow		RMT1		LACR1		RMT5		RToe		LUA1		RTB2		LWRU		RCAL		LCAR		RTB3		RTB4		RFA1		LMT5		RWRU		RMMAL		C7		LASI		RLFC		LTB2		LPSI		LLFC		LMMAL		RElbowM		LTH3		RASI		RPSI		LHJC		MidPelvis		OPelvis		PELOrigin		RHJC		SACR		XPelvis		YPelvis		ZPelvis		LCAL		RElbow		LFHD		RTH3		RCAR		STRN		RBHD		LMT1		RMFC		RKJC		LLMAL		RWRR		RLMAL		RUA1		RFHD		RBack		LMFC		LKJC		LTH4		RTH1		LTH1		LTH2		LTB1		LTB4		LTB3		RTH4		RTB1		RTH2
			X1	Y1	Z1	X2	Y2	Z2	X3	Y3	Z3	X4	Y4	Z4	X5	Y5	Z5	X6	Y6	Z6	X7	Y7	Z7	X8	Y8	Z8	X9	Y9	Z9	X10	Y10	Z10	X11	Y11	Z11	X12	Y12	Z12	X13	Y13	Z13	X14	Y14	Z14	X15	Y15	Z15	X16	Y16	Z16	X17	Y17	Z17	X18	Y18	Z18	X19	Y19	Z19	X20	Y20	Z20	X21	Y21	Z21	X22	Y22	Z22	X23	Y23	Z23	X24	Y24	Z24	X25	Y25	Z25	X26	Y26	Z26	X27	Y27	Z27	X28	Y28	Z28	X29	Y29	Z29	X30	Y30	Z30	X31	Y31	Z31	X32	Y32	Z32	X33	Y33	Z33	X34	Y34	Z34	X35	Y35	Z35	X36	Y36	Z36	X37	Y37	Z37	X38	Y38	Z38	X39	Y39	Z39	X40	Y40	Z40	X41	Y41	Z41	X42	Y42	Z42	X43	Y43	Z43	X44	Y44	Z44	X45	Y45	Z45	X46	Y46	Z46	X47	Y47	Z47	X48	Y48	Z48	X49	Y49	Z49	X50	Y50	Z50	X51	Y51	Z51	X52	Y52	Z52	X53	Y53	Z53	X54	Y54	Z54	X55	Y55	Z55	X56	Y56	Z56	X57	Y57	Z57	X58	Y58	Z58	X59	Y59	Z59	X60	Y60	Z60	X61	Y61	Z61	X62	Y62	Z62	X63	Y63	Z63	X64	Y64	Z64	X65	Y65	Z65	X66	Y66	Z66	X67	Y67	Z67	X68	Y68	Z68

654	3.27	749.93	125.79	-86.594	9	2014	4	312.5	1611.7	-59.092	219.49	823.98	-275.77	221.22	1105.3	-266.33	316.97	26.602	30.17	365.69	1419.1	-162.6	270.56	22.536	113.82	370.86	23.062	73.187	294.38	1228.5	-235.94	272.29	273.35	103.62	286.36	790.49	-265.75	107.42	39.144	9.8215	204.38	966.17	-274.48	248.39	190.61	25.018	281.19	272.9	28.823	383.74	941.71	302.09	695.72	72.913	-139.89	425.75	829.17	267.75	193.35	70.883	-5.7772	284.73	1479.5	11.79	388.98	1033.8	-151.16	304.58	512.05	124.08	533.79	333.23	-141.35	194.35	1042.2	-33.926	443.52	529.59	-142.73	591.44	100.75	-48.412	277.95	1088.2	231.81	438.1	587.13	-150.58	369.86	1055.9	156.58	190.1	1047.1	34.46	313.65	938.34	-99.282	285.82	1044.8	1.4906	379.42	1044.9	2.714	379.42	1044.9	2.714	300.65	953.4	109.98	192.23	1044.7	0.2673	459.27	1045.2	7.6474	379.42	1124.7	-3.0289	374.47	1050.6	82.355	523.38	33.965	-75.259	320.2	1090.9	307.96	490.81	1649.4	-37.388	307.42	559.77	129.78	499.39	827.75	285.53	212.83	1223.5	15.626	320.19	1608	77.675	721.77	87.591	-62.701	278.69	485.49	-2.0552	291.64	498.77	61.012	570.36	81.278	-127.37	489.92	875.27	237.27	162.95	72.719	70.607	379.16	1253.7	255.39	494.41	1649.1	37.569	402.67	1430.9	161.32	447.95	500.58	-13.932	445.73	515.08	-78.33	414.26	678.29	-165.56	311.18	745.45	174.31	389.26	767.75	-175.52	478.95	685.18	-195.43	532.73	426.09	-68.81	550.18	334.98	-71.038	569.43	244.41	-74.871	312.56	649.12	152.9	314.03	367.31	32.087	377.83	656.85	120.52
655	3.275	761.06	129.4	-86.684	9	2014	4	317.26	1611	-59.496	222.36	823.8	-275.87	224.98	1105.1	-266.56	317.02	26.629	30.107	370.53	1418.5	-162.98	270.53	22.506	113.79	370.88	22.986	73.158	298.59	1228.1	-236.26	273.73	272.96	103.47	289.11	790.06	-265.9	107.55	39.494	9.7282	207.67	966.03	-274.58	249.3	190.33	24.906	282.53	272.51	28.556	388.95	941.14	302.01	707.58	75.698	-139.83	431.02	828.61	267.72	193.57	70.98	-5.8712	289.51	1478.9	11.42	393.82	1033	-151.2	307.33	511.51	123.91	540.32	333.51	-141.38	198.92	1041.7	-34.592	446	528.22	-142.75	602.92	102.12	-48.186	282.91	1087.5	231.75	439.81	585.22	-151.09	374.06	1055.2	156.32	194.54	1046.6	33.748	318.28	937.69	-99.505	290.33	1044.1	1.0687	383.94	1044.1	2.5596	383.94	1044.1	2.5596	304.85	952.8	109.61	196.73	1044.1	-0.42216	463.77	1044.3	7.6693	384.05	1123.9	-3.2	378.82	1049.8	82.188	535.92	33.959	-74.887	325.3	1090.3	307.87	495.56	1648.8	-37.744	310.36	559.25	129.65	504.7	827.28	285.32	217.46	1222.9	15.11	324.93	1607.3	77.273	733.46	90.781	-63.009	281.37	485.06	-2.2416	294.35	498.28	60.836	582.09	82.177	-127.06	495.07	874.74	237.02	163.15	72.97	70.575	384.13	1253.1	255.11	499.16	1648.5	37.214	407.45	1430.2	160.94	450.86	499.06	-14.027	448.43	513.64	-78.386	416.53	676.56	-165.97	314.73	744.93	174.08	392.13	766.19	-175.89	481.2	682.79	-196.01	537.76	426.5	-69.05	557.06	335.68	-71.169	578.07	245.44	-74.902	315.8	648.85	152.98	315.66	367.14	31.051	381.03	655.94	120.46
656	3.28	771.52	132.75	-86.815	9	2014	4	322.04	1610.4	-59.924	225.33	823.59	-275.99	228.8	1104.9	-266.81	317.07	26.672	30.06	375.38	1417.8	-163.38	270.5	22.471	113.76	370.89	22.898	73.119	302.82	1227.7	-236.6	275.19	272.57	103.32	291.97	789.62	-266.06	107.67	39.864	9.6503	211.05	965.87	-274.71	250.22	190.06	24.813	283.9	272.12	28.302	394.13	940.55	301.9	718.67	78.306	-139.78	436.24	828.03	267.67	193.79	71.091	-5.9573	294.3	1478.3	11.02	398.68	1032.2	-151.25	310.12	510.96	123.75	546.7	333.75	-141.38	203.51	1041.1	-35.266	448.73	526.95	-142.78	613.76	103.44	-47.891	287.87	1086.8	231.65	441.71	583.38	-151.6	378.36	1054.4	156.09	198.99	1046.1	33.032	322.95	937.03	-99.716	294.89	1043.4	0.65187	388.52	1043.3	2.4211	388.52	1043.3	2.4211	309.13	952.17	109.28	201.25	1043.6	-1.1174	468.35	1043.4	7.6894	388.75	1123.1	-3.3455	383.26	1049.1	82.039	547.71	34.028	-74.405	330.38	1089.7	307.74	500.33	1648.2	-38.113	313.34	558.73	129.52	509.97	826.78	285.09	222.11	1222.3	14.568	329.67	1606.6	76.847	744.45	93.751	-63.371	284.07	484.62	-2.4269	297.09	497.79	60.661	593.1	83.061	-126.67	500.19	874.19	236.75	163.37	73.239	70.553	389.1	1252.5	254.79	503.91	1647.8	36.846	412.23	1429.6	160.53	453.93	497.64	-14.14	451.33	512.3	-78.46	418.92	674.88	-166.4	318.33	744.41	173.84	395.04	764.66	-176.28	483.59	680.48	-196.64	542.76	426.85	-69.26	563.72	336.33	-71.254	586.32	246.41	-74.869	319.08	648.59	153.05	317.31	366.98	30.009	384.29	655.05	120.35
657	3.285	781.29	135.78	-86.983	9	2014	4	326.84	1609.7	-60.377	228.41	823.36	-276.12	232.68	1104.7	-267.1	317.11	26.732	30.03	380.25	1417.1	-163.81	270.48	22.431	113.73	370.91	22.799	73.071	307.09	1227.2	-236.97	276.66	272.19	103.19	294.95	789.18	-266.23	107.8	40.255	9.5891	214.51	965.68	-274.86	251.15	189.79	24.737	285.27	271.74	28.065	399.27	939.95	301.77	728.96	80.674	-139.71	441.43	827.43	267.6	194	71.219	-6.0343	299.08	1477.6	10.591	403.58	1031.4	-151.29	312.93	510.41	123.59	552.93	333.93	-141.36	208.11	1040.5	-35.945	451.73	525.78	-142.83	623.92	104.69	-47.526	292.83	1086.1	231.52	443.88	581.65	-152.11	382.75	1053.6	155.89	203.48	1045.5	32.318	327.66	936.36	-99.917	299.48	1042.8	0.2421	393.17	1042.5	2.298	393.17	1042.5	2.298	313.49	951.51	108.97	205.8	1043	-1.8138	472.98	1042.5	7.707	393.52	1122.3	-3.466	387.77	1048.3	81.906	558.69	34.131	-73.805	335.46	1089	307.57	505.11	1647.5	-38.496	316.35	558.21	129.39	515.2	826.24	284.84	226.77	1221.7	14.004	334.41	1605.9	76.397	754.7	96.445	-63.765	286.8	484.18	-2.6144	299.86	497.3	60.486	603.35	83.879	-126.18	505.28	873.59	236.47	163.59	73.524	70.541	394.06	1251.9	254.44	508.66	1647.2	36.464	417.02	1428.9	160.1	457.18	496.36	-14.266	454.45	511.07	-78.547	421.49	673.29	-166.87	321.98	743.89	173.6	398.01	763.18	-176.7	486.15	678.28	-197.31	547.75	427.12	-69.44	570.17	336.89	-71.293	594.17	247.28	-74.772	322.4	648.32	153.1	318.99	366.8	29.009	387.61	654.18	120.2
658	3.29	790.34	138.43	-87.187	9	2014	4	331.64	1609	-60.853	231.6	823.11	-276.27	236.63	1104.5	-267.43	317.16	26.807	30.017	385.12	1416.5	-164.27	270.46	22.386	113.7	370.93	22.691	73.016	311.39	1226.8	-237.36	278.14	271.81	103.06	298.05	788.73	-266.4	107.93	40.668	9.5449	218.06	965.47	-275.06	252.09	189.53	24.674	286.67	271.36	27.842	404.39	939.33	301.6	738.42	82.744	-139.65	446.56	826.81	267.51	194.22	71.364	-6.1012	303.87	1477	10.132	408.5	1030.5	-151.34	315.77	509.86	123.42	559	334.03	-141.3	212.73	1040	-36.625	455.05	524.72	-142.89	633.38	105.81	-47.094	297.78	1085.4	231.34	446.38	580.08	-152.63	387.24	1052.8	155.72	208.01	1044.9	31.61	332.39	935.68	-100.11	304.12	1042.1	-0.15876	397.87	1041.7	2.1897	397.87	1041.7	2.1897	317.93	950.82	108.69	210.37	1042.4	-2.5072	477.68	1041.6	7.7217	398.34	1121.5	-3.5634	392.36	1047.5	81.791	568.84	34.229	-73.086	340.52	1088.4	307.36	509.91	1646.9	-38.895	319.38	557.69	129.26	520.37	825.67	284.59	231.45	1221.1	13.42	339.15	1605.2	75.921	764.2	98.808	-64.172	289.54	483.74	-2.8073	302.65	496.8	60.308	612.83	84.587	-125.62	510.32	872.97	236.18	163.82	73.824	70.539	399.01	1251.2	254.06	513.43	1646.6	36.068	421.8	1428.2	159.65	460.64	495.22	-14.394	457.84	509.97	-78.641	424.28	671.81	-167.37	325.68	743.37	173.35	401.09	761.78	-177.16	488.94	676.23	-198.01	552.72	427.31	-69.589	576.41	337.35	-71.284	601.6	248.02	-74.611	325.77	648.02	153.13	320.71	366.57	28.099	390.97	653.32	120.01
659	3.295	798.66	140.66	-87.425	9	2014	4	336.44	1608.3	-61.355	234.91	822.84	-276.45	240.64	1104.2	-267.79	317.21	26.895	30.022	390	1415.8	-164.75	270.45	22.335	113.67	370.94	22.577	72.955	315.72	1226.4	-237.79	279.63	271.44	102.95	301.26	788.27	-266.59	108.05	41.103	9.5175	221.7	965.23	-275.28	253.03	189.28	24.622	288.07	270.98	27.633	409.47	938.71	301.41	747.04	84.469	-139.57	451.64	826.18	267.4	194.43	71.526	-6.1577	308.66	1476.4	9.6433	413.44	1029.7	-151.39	318.62	509.31	123.26	564.89	334.04	-141.21	217.37	1039.4	-37.302	458.7	523.78	-142.96	642.12	106.76	-46.6	302.73	1084.7	231.13	449.28	578.68	-153.13	391.8	1052	155.58	212.56	1044.3	30.914	337.15	934.99	-100.29	308.79	1041.4	-0.54947	402.62	1040.9	2.0951	402.62	1040.9	2.0951	322.43	950.1	108.45	214.96	1041.8	-3.194	482.42	1040.7	7.7328	403.2	1120.7	-3.64	397.01	1046.6	81.69	578.13	34.284	-72.256	345.56	1087.8	307.11	514.71	1646.3	-39.312	322.44	557.17	129.14	525.48	825.07	284.32	236.15	1220.5	12.82	343.9	1604.6	75.421	772.95	100.79	-64.576	292.3	483.31	-3.0078	305.46	496.31	60.125	621.51	85.146	-124.98	515.33	872.32	235.87	164.05	74.137	70.546	403.96	1250.6	253.64	518.2	1645.9	35.654	426.58	1427.5	159.17	464.34	494.23	-14.509	461.52	509.01	-78.732	427.35	670.48	-167.91	329.42	742.84	173.09	404.3	760.48	-177.65	492	674.37	-198.72	557.69	427.39	-69.706	582.42	337.69	-71.229	608.62	248.61	-74.39	329.17	647.69	153.12	322.5	366.27	27.324	394.39	652.48	119.79
